<svg width="239" height="118" viewBox="0 0 239 118" fill="none" xmlns="http://www.w3.org/2000/svg">
<path d="M18.4097 24.0207L23.0677 25.2688L4.65802 93.9747L0 92.7266L18.4097 24.0207Z" fill="#9B9879"/>
<path d="M74.3967 96.2152C68.1855 96.2152 62.7845 94.6287 58.1936 91.4556C53.6702 88.2825 50.1933 83.9617 47.7629 78.4931C45.3324 72.9571 44.1172 66.6446 44.1172 59.5558C44.1172 52.1294 45.3999 45.6819 47.9654 40.2134C50.5309 34.7448 54.1091 30.5253 58.6999 27.5547C63.2908 24.5842 68.5906 23.0989 74.5992 23.0989C79.5276 23.0989 83.9497 24.0778 87.8655 26.0357C91.7812 27.926 94.9881 30.6603 97.486 34.2385C99.984 37.8167 101.469 42.0362 101.942 46.8971H92.22C91.6799 42.0362 89.8233 38.1205 86.6502 35.1499C83.4771 32.1793 79.4264 30.6941 74.4979 30.6941C70.3121 30.6941 66.6327 31.8755 63.4596 34.2385C60.2865 36.6014 57.7885 39.9771 55.9657 44.3654C54.2103 48.6862 53.3327 53.7834 53.3327 59.6571C53.3327 65.5982 54.2441 70.7629 56.0669 75.1512C57.8898 79.4721 60.3878 82.8139 63.5609 85.1769C66.734 87.4723 70.3459 88.62 74.3967 88.62C77.8398 88.62 80.8441 87.9112 83.4096 86.4934C86.0426 85.0756 88.1355 83.084 89.6883 80.5185C91.3086 77.953 92.2875 74.9487 92.6251 71.5055H102.246C101.773 76.434 100.322 80.7886 97.8911 84.5693C95.5282 88.2825 92.3551 91.1518 88.3718 93.1772C84.3886 95.2025 79.7302 96.2152 74.3967 96.2152ZM120.007 75.8601V68.2649H158.388V75.8601H120.007ZM132.666 24.3141H144.92L168.11 95H159.097L143.097 45.9857L138.843 31.7068L134.59 46.087L118.488 95H109.577L132.666 24.3141ZM186.986 67.9611V60.3659H206.227C211.155 60.3659 215.139 59.0494 218.177 56.4164C221.215 53.7834 222.734 50.3065 222.734 45.9857C222.734 41.7324 221.316 38.323 218.481 35.7575C215.713 33.192 212.033 31.9093 207.442 31.9093H186.986V24.3141H207.543C212.472 24.3141 216.759 25.2255 220.405 27.0484C224.05 28.8037 226.886 31.3017 228.911 34.5423C230.937 37.7154 231.949 41.5299 231.949 45.9857C231.949 50.374 230.869 54.2223 228.709 57.5304C226.616 60.8385 223.645 63.404 219.797 65.2269C215.949 67.0497 211.425 67.9611 206.227 67.9611H186.986ZM180.707 95V24.3141H189.416V95H180.707Z" fill="#FFFFF9" fill-opacity="0.898039"/>
</svg>
